<svg width="200" height="50" version="1.1" viewBox="0 0 52.917 13.229" xmlns="http://www.w3.org/2000/svg">
 <g transform="matrix(.93332 0 0 1 -14.144 -75.001)">
  <path transform="scale(1,-1)" d="m15.154-88.229h56.697v13.229h-56.697z" style="fill-rule:evenodd;stroke-width:.057973"/>
  <g transform="scale(1.0351 .96608)" style="fill:#fff;stroke-width:.27387" aria-label="BLACK LIVES MATTER">
   <path d="m21.212 84.178q0.16225 0 0.24606-0.07132 0.0838-0.07132 0.0838-0.2104 0-0.13729-0.0838-0.20861-0.0838-0.0731-0.24606-0.0731h-0.37978v0.56343zm0.02318 1.1643q0.20683 0 0.31024-0.08737 0.1052-0.08737 0.1052-0.26388 0-0.17295-0.10342-0.25854-0.10341-0.08737-0.31203-0.08737h-0.40296v0.69716zm0.63832-0.95748q0.22109 0.06419 0.34234 0.23714 0.12124 0.17295 0.12124 0.42436 0 0.38513-0.26032 0.57413-0.26032 0.189-0.79166 0.189h-1.1393v-2.662h1.0306q0.55452 0 0.80235 0.1676 0.24962 0.1676 0.24962 0.53668 0 0.19435-0.09093 0.33164-0.09093 0.13551-0.26388 0.20148z" style="fill:#fff;stroke-width:.27387"/>
   <path d="m22.927 83.147h0.68646v2.1432h1.2053v0.51886h-1.8918z" style="fill:#fff;stroke-width:.27387"/>
   <path d="m26.868 85.324h-1.0734l-0.16939 0.48498h-0.69002l0.986-2.662h0.8184l0.986 2.662h-0.69002zm-0.9022-0.49389h0.72925l-0.36373-1.0591z" style="fill:#fff;stroke-width:.27387"/>
   <path d="m30.188 85.663q-0.189 0.09807-0.39404 0.14799t-0.42792 0.04992q-0.66506 0-1.0538-0.37087-0.3887-0.37265-0.3887-1.0092 0-0.63832 0.3887-1.0092 0.3887-0.37265 1.0538-0.37265 0.22288 0 0.42792 0.04992t0.39404 0.14799v0.55095q-0.19078-0.13016-0.37622-0.19078-0.18543-0.06062-0.39048-0.06062-0.3673 0-0.5777 0.23536t-0.2104 0.64902q0 0.41188 0.2104 0.64723t0.5777 0.23536q0.20505 0 0.39048-0.06062 0.18543-0.06062 0.37622-0.19078z" style="fill:#fff;stroke-width:.27387"/>
   <path d="m30.758 83.147h0.68646v0.97174l0.98957-0.97174h0.797l-1.282 1.2606 1.4139 1.4014h-0.85941l-1.0591-1.0484v1.0484h-0.68646z" style="fill:#fff;stroke-width:.27387"/>
   <path d="m34.859 83.147h0.68646v2.1432h1.2053v0.51886h-1.8918z" style="fill:#fff;stroke-width:.27387"/>
   <path d="m37.184 83.147h0.68646v2.662h-0.68646z" style="fill:#fff;stroke-width:.27387"/>
   <path d="m38.229 83.147h0.69002l0.70607 1.9649 0.70429-1.9649h0.69002l-0.986 2.662h-0.8184z" style="fill:#fff;stroke-width:.27387"/>
   <path d="m41.371 83.147h1.8525v0.51886h-1.1661v0.49568h1.0966v0.51886h-1.0966v0.60979h1.2053v0.51886h-1.8918z" style="fill:#fff;stroke-width:.27387"/>
   <path d="m45.72 83.231v0.56343q-0.21931-0.09807-0.42792-0.14799t-0.39404-0.04992q-0.24606 0-0.36373 0.06775-0.11768 0.06775-0.11768 0.2104 0 0.10698 0.07845 0.1676 0.08024 0.05884 0.28885 0.10163l0.29241 0.05884q0.44397 0.08915 0.63118 0.27102 0.18722 0.18187 0.18722 0.51707 0 0.4404-0.2621 0.65615-0.26032 0.21396-0.797 0.21396-0.25319 0-0.50816-0.04814-0.25497-0.04814-0.50994-0.14264v-0.57948q0.25497 0.13551 0.49211 0.20504 0.23892 0.06776 0.46002 0.06776 0.22466 0 0.34412-0.07489 0.11946-0.07489 0.11946-0.21396 0-0.12481-0.08202-0.19256-0.08023-0.06775-0.32272-0.12124l-0.26567-0.05884q-0.39939-0.08558-0.58483-0.2728-0.18365-0.18722-0.18365-0.50459 0-0.39761 0.25675-0.61157t0.73816-0.21396q0.21931 0 0.4511 0.03388 0.23179 0.03209 0.47963 0.09807z" style="fill:#fff;stroke-width:.27387"/>
   <path d="m47.768 83.147h0.87367l0.60622 1.4246 0.60979-1.4246h0.87189v2.662h-0.64902v-1.947l-0.61336 1.4353h-0.43505l-0.61336-1.4353v1.947h-0.6508z" style="fill:#fff;stroke-width:.27387"/>
   <path d="m53.021 85.324h-1.0734l-0.16939 0.48498h-0.69002l0.986-2.662h0.8184l0.986 2.662h-0.69002zm-0.9022-0.49389h0.72925l-0.36373-1.0591z" style="fill:#fff;stroke-width:.27387"/>
   <path d="m53.627 83.147h2.4534v0.51886h-0.88259v2.1432h-0.68646v-2.1432h-0.88437z" style="fill:#fff;stroke-width:.27387"/>
   <path d="m56.202 83.147h2.4534v0.51886h-0.88259v2.1432h-0.68646v-2.1432h-0.88437z" style="fill:#fff;stroke-width:.27387"/>
   <path d="m59.008 83.147h1.8525v0.51886h-1.1661v0.49568h1.0966v0.51886h-1.0966v0.60979h1.2053v0.51886h-1.8918z" style="fill:#fff;stroke-width:.27387"/>
   <path d="m62.48 84.328q0.21574 0 0.30846-0.08024 0.0945-0.08024 0.0945-0.26388 0-0.18187-0.0945-0.26032-0.09272-0.07845-0.30846-0.07845h-0.28885v0.68289zm-0.28885 0.47428v1.0074h-0.68646v-2.662h1.0484q0.52599 0 0.77026 0.17652 0.24606 0.17652 0.24606 0.55808 0 0.26388-0.12838 0.43327-0.12659 0.16939-0.38335 0.24962 0.14086 0.03209 0.2514 0.14621 0.11233 0.11233 0.22644 0.34234l0.37265 0.756h-0.73103l-0.32451-0.6615q-0.09806-0.1997-0.1997-0.2728-0.09985-0.0731-0.26745-0.0731z" style="fill:#fff;stroke-width:.27387"/>
  </g>
 </g>
</svg>
