<svg xmlns="http://www.w3.org/2000/svg" xmlns:xlink="http://www.w3.org/1999/xlink" width="195.18" height="50" viewBox="0 0 195.18 50">
  <defs>
    <clipPath id="a">
      <rect width="50" height="50" style="fill: none"/>
    </clipPath>
  </defs>
  <rect x="50" width="145.18" height="50" style="fill: #2b2b2b"/>
  <g>
    <g>
      <path d="M81,22.64c0-5.47,4.27-9.53,10.08-9.53s10.07,4,10.07,9.53-4.28,9.52-10.07,9.52S81,28.11,81,22.64Zm15.84,0a5.76,5.76,0,1,0-11.52,0,5.76,5.76,0,1,0,11.52,0Z" style="fill: #f1f1f2"/>
      <path d="M105.56,30,107,26.82a10.81,10.81,0,0,0,6.07,1.92c2.53,0,3.55-.84,3.55-2,0-3.45-10.7-1.08-10.7-7.92,0-3.13,2.52-5.74,7.76-5.74a12.35,12.35,0,0,1,6.39,1.64L118.77,18a10.47,10.47,0,0,0-5.11-1.45c-2.52,0-3.5.95-3.5,2.11,0,3.39,10.71,1.05,10.71,7.81,0,3.08-2.55,5.71-7.81,5.71A13.15,13.15,0,0,1,105.56,30Z" style="fill: #f1f1f2"/>
      <path d="M125.26,22.64c0-5.55,4.27-9.53,10-9.53a9.51,9.51,0,0,1,7.58,3.27L140.1,18.9a5.93,5.93,0,0,0-4.63-2.15,5.64,5.64,0,0,0-5.89,5.89,5.65,5.65,0,0,0,5.89,5.89,5.89,5.89,0,0,0,4.63-2.18l2.74,2.52a9.49,9.49,0,0,1-7.61,3.29C129.53,32.16,125.26,28.19,125.26,22.64Z" style="fill: #f1f1f2"/>
      <path d="M160.07,31.84l-3.55-5.13H152.6v5.13h-4.26V13.43h8c4.92,0,8,2.55,8,6.68a6,6,0,0,1-3.78,5.82l4.13,5.91Zm-4-14.94H152.6v6.42h3.47c2.6,0,3.92-1.21,3.92-3.21S158.67,16.9,156.07,16.9Z" style="fill: #f1f1f2"/>
    </g>
    <g>
      <path d="M80.21,38.55a2,2,0,1,1,2,1.88A1.88,1.88,0,0,1,80.21,38.55Zm3.13,0a1.14,1.14,0,1,0-1.14,1.16A1.11,1.11,0,0,0,83.34,38.55Z" style="fill: #f1f1f2"/>
      <path d="M88.33,39a1.36,1.36,0,0,1-1.39,1.44,1.08,1.08,0,0,1-.84-.34v1.3h-.81v-3.8h.77v.33a1.07,1.07,0,0,1,.88-.37A1.36,1.36,0,0,1,88.33,39Zm-.82,0a.71.71,0,1,0-.71.77A.71.71,0,0,0,87.51,39Z" style="fill: #f1f1f2"/>
      <path d="M92.11,39.2H90a.74.74,0,0,0,.8.56,1,1,0,0,0,.7-.27l.43.47a1.48,1.48,0,0,1-1.15.45A1.45,1.45,0,0,1,89.19,39a1.41,1.41,0,0,1,1.48-1.44A1.39,1.39,0,0,1,92.13,39,1.8,1.8,0,0,1,92.11,39.2ZM90,38.73h1.37a.66.66,0,0,0-.68-.59A.67.67,0,0,0,90,38.73Z" style="fill: #f1f1f2"/>
      <path d="M96,38.77v1.6h-.81V38.89c0-.45-.2-.66-.56-.66S94,38.47,94,39v1.38h-.81v-2.8H94v.33a1.23,1.23,0,0,1,.93-.37A1.1,1.1,0,0,1,96,38.77Z" style="fill: #f1f1f2"/>
      <path d="M99.06,40l.29-.64a2.06,2.06,0,0,0,1.19.38c.5,0,.7-.16.7-.39,0-.68-2.11-.21-2.11-1.56,0-.62.5-1.13,1.53-1.13a2.43,2.43,0,0,1,1.26.32l-.26.64a2,2,0,0,0-1-.28c-.5,0-.69.18-.69.41,0,.67,2.11.21,2.11,1.54,0,.61-.5,1.13-1.54,1.13A2.57,2.57,0,0,1,99.06,40Z" style="fill: #f1f1f2"/>
      <path d="M102.91,39a1.54,1.54,0,1,1,1.54,1.44A1.44,1.44,0,0,1,102.91,39Zm2.25,0a.72.72,0,1,0-.71.77A.71.71,0,0,0,105.16,39Z" style="fill: #f1f1f2"/>
      <path d="M109.86,37.57v2.8h-.77V40a1.19,1.19,0,0,1-2.06-.88V37.57h.81V39c0,.47.21.68.56.68s.65-.24.65-.76V37.57Z" style="fill: #f1f1f2"/>
      <path d="M112.87,37.53v.75h-.19a.69.69,0,0,0-.74.78v1.32h-.81v-2.8h.78v.37A1.11,1.11,0,0,1,112.87,37.53Z" style="fill: #f1f1f2"/>
      <path d="M113.64,39a1.44,1.44,0,0,1,1.55-1.44,1.29,1.29,0,0,1,1.25.71l-.62.34a.72.72,0,0,0-.63-.38.77.77,0,0,0,0,1.54.7.7,0,0,0,.63-.38l.62.34a1.29,1.29,0,0,1-1.25.71A1.44,1.44,0,0,1,113.64,39Z" style="fill: #f1f1f2"/>
      <path d="M120.12,39.2H118a.75.75,0,0,0,.8.56.94.94,0,0,0,.7-.27l.43.47a1.48,1.48,0,0,1-1.15.45A1.45,1.45,0,0,1,117.19,39a1.42,1.42,0,0,1,1.49-1.44A1.38,1.38,0,0,1,120.13,39C120.13,39,120.12,39.13,120.12,39.2ZM118,38.73h1.38a.67.67,0,0,0-.69-.59A.67.67,0,0,0,118,38.73Z" style="fill: #f1f1f2"/>
      <path d="M124.07,37.64h.72v.62h-.7v2.11h-.81V38.26h-.43v-.62h.43v-.13a1,1,0,0,1,1.08-1,1.19,1.19,0,0,1,.62.15l-.21.59a.61.61,0,0,0-.33-.1c-.24,0-.37.13-.37.41Z" style="fill: #f1f1f2"/>
      <path d="M125.47,39A1.54,1.54,0,1,1,127,40.41,1.44,1.44,0,0,1,125.47,39Zm2.25,0a.72.72,0,1,0-.71.77A.71.71,0,0,0,127.72,39Z" style="fill: #f1f1f2"/>
      <path d="M131.33,37.53v.75h-.18a.68.68,0,0,0-.74.78v1.32h-.81v-2.8h.77v.37A1.13,1.13,0,0,1,131.33,37.53Z" style="fill: #f1f1f2"/>
      <path d="M134.18,38.55a2,2,0,0,1,3.46-1.24l-.54.5a1.16,1.16,0,0,0-.91-.42,1.16,1.16,0,1,0,0,2.32,1.14,1.14,0,0,0,.91-.43l.54.5a2,2,0,0,1-3.46-1.23Z" style="fill: #f1f1f2"/>
      <path d="M138.58,36.73a.46.46,0,0,1,.5-.45.45.45,0,1,1-.5.45Zm.09.84h.81v2.8h-.81Z" style="fill: #f1f1f2"/>
      <path d="M143.53,37.57l-1.18,2.8h-.84l-1.17-2.8h.84l.77,1.9.8-1.9Z" style="fill: #f1f1f2"/>
      <path d="M144.28,36.73a.47.47,0,0,1,.51-.45.45.45,0,1,1,0,.9A.46.46,0,0,1,144.28,36.73Zm.1.84h.81v2.8h-.81Z" style="fill: #f1f1f2"/>
      <path d="M146.47,36.52h.81v3.85h-.81Z" style="fill: #f1f1f2"/>
      <path d="M152.91,40.37l-.7-1h-.77v1h-.84V36.73h1.57c1,0,1.57.51,1.57,1.32A1.18,1.18,0,0,1,153,39.2l.81,1.17Zm-.79-2.95h-.68v1.26h.68c.51,0,.77-.23.77-.63S152.63,37.42,152.12,37.42Z" style="fill: #f1f1f2"/>
      <path d="M154.78,36.73a.46.46,0,0,1,.5-.45.45.45,0,1,1-.5.45Zm.1.84h.81v2.8h-.81Z" style="fill: #f1f1f2"/>
      <path d="M159.84,37.57V39.9c0,1-.56,1.51-1.57,1.51A2.33,2.33,0,0,1,156.9,41l.32-.58a1.69,1.69,0,0,0,1,.31c.57,0,.82-.26.82-.76v-.12a1.12,1.12,0,0,1-.88.35,1.35,1.35,0,1,1,0-2.7,1.11,1.11,0,0,1,.92.4v-.36Zm-.8,1.31a.74.74,0,0,0-1.47,0,.74.74,0,0,0,1.47,0Z" style="fill: #f1f1f2"/>
      <path d="M164,38.77v1.6h-.81V38.89c0-.45-.21-.66-.57-.66s-.67.24-.67.76v1.38h-.8V36.52h.8v1.34a1.27,1.27,0,0,1,.89-.33A1.1,1.1,0,0,1,164,38.77Z" style="fill: #f1f1f2"/>
      <path d="M167,40.23a1.13,1.13,0,0,1-.65.18.93.93,0,0,1-1.05-1V38.26h-.43v-.62h.43V37h.81v.68h.7v.62h-.7V39.4a.32.32,0,0,0,.35.36.54.54,0,0,0,.33-.1Z" style="fill: #f1f1f2"/>
      <path d="M167.73,40.11l.27-.59a1.83,1.83,0,0,0,1,.27c.38,0,.52-.09.52-.25,0-.46-1.69,0-1.69-1.1,0-.53.48-.91,1.29-.91a2.27,2.27,0,0,1,1.08.25l-.27.57a1.69,1.69,0,0,0-.81-.21c-.36,0-.52.12-.52.26,0,.48,1.69,0,1.69,1.12,0,.52-.48.89-1.32.89A2.42,2.42,0,0,1,167.73,40.11Z" style="fill: #f1f1f2"/>
    </g>
  </g>
  <g style="clip-path: url(#a)">
    <rect width="50" height="50" style="fill: #85bae1"/>
    <g>
      <path d="M55,31,42.61,54.89a1.85,1.85,0,0,1-2.5.79L25.77,48.22,39.89,21.06l14.35,7.46A1.85,1.85,0,0,1,55,31Z" style="fill: #a9daf5"/>
      <path d="M39,22.7,55,31a1.85,1.85,0,0,0-.79-2.49L39.89,21.06Z" style="fill: #89c2df"/>
      <g>
        <path d="M33.77,45.38a.44.44,0,0,0-.29.56l1.18,3.75a.45.45,0,0,0,.56.29l3.7-1.17a.44.44,0,0,0,.26-.22.45.45,0,0,0-.53-.63l-3.27,1-1.05-3.32a.45.45,0,0,0-.56-.29Z" style="fill: #44809e"/>
        <path d="M40.66,38.14l-3.74,1.18a.44.44,0,0,0-.29.56.45.45,0,0,0,.56.3l3.32-1,1,3.27a.45.45,0,0,0,.56.29.44.44,0,0,0,.26-.22.41.41,0,0,0,0-.34l-1.16-3.7a.46.46,0,0,0-.57-.29Z" style="fill: #44809e"/>
        <path d="M34.55,40.26a.47.47,0,0,0,0,.64l6.16,6.9a.47.47,0,0,0,.64,0,.51.51,0,0,0,.09-.13.44.44,0,0,0-.06-.51l-6.16-6.9a.44.44,0,0,0-.63,0Z" style="fill: #44809e"/>
      </g>
      <path d="M41.58,30.4,40.24,33a.92.92,0,1,1-1.64-.85l1.34-2.57a.92.92,0,0,1,1.64.85Z" style="fill: #40c5ec"/>
      <path d="M47,27.9l-3.52,6.78a.92.92,0,0,1-1.25.39.91.91,0,0,1-.39-1.24l3.52-6.78a.93.93,0,0,1,1.25-.39A.91.91,0,0,1,47,27.9Z" style="fill: #ffc229"/>
      <path d="M49.28,31.62,46.8,36.38a.92.92,0,1,1-1.64-.85l2.48-4.76a.92.92,0,0,1,1.24-.4A.94.94,0,0,1,49.28,31.62Z" style="fill: #f68d37"/>
      <path d="M40.46,21.35,26.33,48.51,24,47.32a1.87,1.87,0,0,1-.79-2.5L35.66,20.94a1.86,1.86,0,0,1,2.5-.78Z" style="fill: #44809e"/>
      <path d="M35.66,20.94l3.94,2,.86-1.64-2.3-1.19A1.86,1.86,0,0,0,35.66,20.94Z" style="fill: #3a718f"/>
      <circle cx="25.75" cy="44.88" r="0.92" style="fill: #40c5ec"/>
      <circle cx="27.41" cy="41.7" r="0.92" style="fill: #f2f2f2"/>
      <circle cx="29.06" cy="38.52" r="0.92" style="fill: #f68d37"/>
    </g>
    <g>
      <path d="M11.09,20.81l16,30.33L12.93,58.63l-16-30.34Z" style="fill: #edeef0"/>
      <path d="M3.64,33.57l7.23,13.69L9,48.24,1.79,34.55Z" style="fill: #d2d2d2"/>
      <path d="M.65,27.9l1.17,2.22L0,31.1-1.2,28.88Z" style="fill: #d2d2d2"/>
      <path d="M2.14,30.74,3.32,33l-1.85,1L.29,31.71Z" style="fill: #d2d2d2"/>
      <path d="M5.52,31.16l1.17,2.22-1.85,1L3.67,32.14Z" style="fill: #6e82b6"/>
      <path d="M3.11,26.6,5.2,30.54l-1.85,1L1.26,27.57Z" style="fill: #d2d2d2"/>
      <path d="M13,45.34l1.82,3.45-1.85,1-1.82-3.45Z" style="fill: #6e82b6"/>
      <path d="M5.58,25.3l1.63,3.08-1.85,1L3.73,26.27Z" style="fill: #d2d2d2"/>
      <path d="M21.59,49.64l1.17,2.22-1.85,1-1.17-2.22Z" style="fill: #d2d2d2"/>
      <path d="M15.16,49.41l1.17,2.22-1.85,1-1.17-2.22Z" style="fill: #d2d2d2"/>
      <path d="M11.2,47.88l1.17,2.22-1.85,1L9.35,48.85Z" style="fill: #d2d2d2"/>
      <path d="M7.53,29,8.7,31.21l-1.85,1L5.68,30Z" style="fill: #6e82b6"/>
      <path d="M8,24l1.18,2.22-1.85,1L6.2,25Z" style="fill: #d2d2d2"/>
      <path d="M10.51,22.69l1,1.85-1.85,1-1-1.85Z" style="fill: #d2d2d2"/>
      <path d="M11.81,25.16l1,1.85-1.85,1-1-1.85Z" style="fill: #d2d2d2"/>
      <path d="M13.12,27.62l1,1.85-1.85,1-1-1.85Z" style="fill: #d2d2d2"/>
      <path d="M14.42,30.09l1,1.85-1.84,1-1-1.85Z" style="fill: #d2d2d2"/>
      <path d="M15.72,32.56l1,1.84-1.85,1-1-1.85Z" style="fill: #d2d2d2"/>
      <path d="M17,35l1,1.85-1.85,1-1-1.85Z" style="fill: #d2d2d2"/>
      <path d="M18.33,37.49l1,1.85-1.85,1-1-1.85Z" style="fill: #d2d2d2"/>
      <path d="M19.63,40l1,1.85-1.85,1-1-1.85Z" style="fill: #d2d2d2"/>
      <path d="M20.93,42.42l1,1.85-1.85,1-1-1.85Z" style="fill: #d2d2d2"/>
      <path d="M22.23,44.89l1,1.85-1.85,1-1-1.85Z" style="fill: #d2d2d2"/>
      <path d="M23.53,47.35l1.7,3.21-1.85,1-1.69-3.21Z" style="fill: #d2d2d2"/>
      <path d="M9,31.83l1.17,2.22L8.35,35,7.18,32.81Z" style="fill: #6e82b6"/>
      <path d="M10.53,34.67l1.17,2.22-1.85,1L8.68,35.64Z" style="fill: #6e82b6"/>
      <path d="M12,37.5l1.17,2.22-1.85,1-1.17-2.22Z" style="fill: #6e82b6"/>
      <path d="M13.52,40.34l1.18,2.22-1.85,1-1.18-2.22Z" style="fill: #6e82b6"/>
      <path d="M15,43.18l1.17,2.21-1.85,1-1.17-2.22Z" style="fill: #6e82b6"/>
      <path d="M9.54,26.83l1.17,2.22L8.87,30,7.69,27.81Z" style="fill: #6e82b6"/>
      <path d="M11,29.67l1.17,2.21-1.85,1L9.19,30.64Z" style="fill: #6e82b6"/>
      <path d="M12.54,32.5l1.17,2.22-1.85,1-1.17-2.22Z" style="fill: #6e82b6"/>
      <path d="M14,35.34l1.17,2.22-1.85,1-1.17-2.22Z" style="fill: #6e82b6"/>
      <path d="M15.53,38.17l1.18,2.22-1.85,1-1.18-2.22Z" style="fill: #6e82b6"/>
      <path d="M17,41l1.17,2.22-1.85,1L15.18,42Z" style="fill: #6e82b6"/>
      <path d="M18.53,43.85l1.17,2.22-1.85,1-1.17-2.22Z" style="fill: #6e82b6"/>
      <path d="M20,46.68,17.56,48l-1-1.91-1.85,1L17,51.3,21.26,49Z" style="fill: #6e82b6"/>
      <path d="M7,34l1.17,2.22-1.85,1L5.17,35Z" style="fill: #6e82b6"/>
      <path d="M8.52,36.83l1.17,2.22L7.84,40,6.67,37.81Z" style="fill: #6e82b6"/>
      <path d="M10,39.67l1.17,2.22-1.85,1L8.17,40.65Z" style="fill: #6e82b6"/>
      <path d="M11.51,42.5l1.17,2.22-1.84,1L9.66,43.48Z" style="fill: #6e82b6"/>
      <path d="M20.46,34.07l1,1.85-1.85,1-1-1.85Z" style="fill: #d2d2d2"/>
      <path d="M21.28,35.61l-.65-1.23.55-.29A2.1,2.1,0,0,1,24,35l1.2,2.28a1.47,1.47,0,0,0,2.59-1.37l-1.2-2.28a2.08,2.08,0,0,1,.87-2.82l2.59-1.37.65,1.23L28.12,32a.69.69,0,0,0-.29.94L29,35.22A2.86,2.86,0,1,1,24,37.89l-1.21-2.28a.69.69,0,0,0-.94-.29Z" style="fill: #edeef0"/>
    </g>
    <g>
      <path d="M34,9.74a1.87,1.87,0,0,0-1.82,1.92v2h-.7V9.73a2.11,2.11,0,1,0-4.21,0v2.6h-.7V8.19a2.28,2.28,0,0,0-2.31-2.34,2.33,2.33,0,0,0-2.15,2.4v3h-.85l0-3.09a2.23,2.23,0,1,0-4.46.05l-.19,5.11.18,0,6.94,1.51a4.07,4.07,0,0,1,2.88,4.78A4.13,4.13,0,0,1,25,22.32a8.58,8.58,0,0,1,2.26,4.91H25.75a7,7,0,0,0-2.3-4.29,3.38,3.38,0,0,1-1.14-.05l-4-.87a3.92,3.92,0,0,0,.23-1.14A3,3,0,0,0,16.59,18a2.84,2.84,0,0,0-1.27-.89,3,3,0,0,0-.65-.73,2.6,2.6,0,0,0-.34,1.3V27.93a6,6,0,0,0,3.38,5.47h0V51a23.87,23.87,0,0,0,14.64,0V33.08h0a7,7,0,0,0,3.37-5.47h0v-16A1.83,1.83,0,0,0,34,9.74Z" style="fill: #ffdecf"/>
      <path d="M35.75,11.61A1.83,1.83,0,0,0,34,9.74a1.87,1.87,0,0,0-1.82,1.92v2h-.7V9.73a2.11,2.11,0,1,0-4.21,0v2.6h-.7V8.19a2.28,2.28,0,0,0-2.31-2.34h0V15a4.17,4.17,0,0,1,2.35,4.62A4.09,4.09,0,0,1,25,22.32a8.58,8.58,0,0,1,2.26,4.91H25.75a7,7,0,0,0-1.52-3.48V52.12l.82,0A23.88,23.88,0,0,0,32.35,51V33.08h0a7,7,0,0,0,3.37-5.47h0Z" style="fill: #5b392d"/>
      <path d="M25,22.32a.52.52,0,0,1,.1.11v-.19l-.1.08Z" style="fill: #fcddce"/>
      <path d="M29.37,17.08h.05a2.18,2.18,0,0,0,2.13-2.23V8.08a2.18,2.18,0,0,0-2.13-2.23h-.05a2.19,2.19,0,0,0-2.13,2.23v6.77A2.19,2.19,0,0,0,29.37,17.08Z" style="fill: #784b39"/>
      <path d="M34,17.08H34a1.82,1.82,0,0,0,1.77-1.87V9.56A1.82,1.82,0,0,0,34,7.7H34a1.87,1.87,0,0,0-1.8,1.86v5.65A1.87,1.87,0,0,0,34,17.08Z" style="fill: #784b39"/>
      <path d="M24.32,15.06a2.32,2.32,0,0,0,2.26-2.37V7.77a2.26,2.26,0,1,0-4.51,0v4.92a2.31,2.31,0,0,0,2.25,2.37Z" style="fill: #facbbe"/>
      <path d="M24.32,5.41h-.09v9.65h.09a2.32,2.32,0,0,0,2.26-2.37V7.77A2.31,2.31,0,0,0,24.32,5.41Z" style="fill: #784b39"/>
      <path d="M16.4,12.92V7.55a2.46,2.46,0,1,1,4.92,0v5.37A2.71,2.71,0,0,1,21,14.28l-4.51-.85A2.85,2.85,0,0,1,16.4,12.92Z" style="fill: #facbbe"/>
      <path d="M25.69,19.4a3.06,3.06,0,0,0-2.31-3.59l-5.61-1.15a2.93,2.93,0,0,0-3.42,2.42,3.07,3.07,0,0,0,2.31,3.59l5.61,1.15A2.93,2.93,0,0,0,25.69,19.4Z" style="fill: #facbbe"/>
    </g>
  </g>
</svg>
