<svg width="253.12" height="49.999" version="1.1" viewBox="0 0 66.973 13.229" xmlns="http://www.w3.org/2000/svg">
 <g transform="matrix(.93332 0 0 1 -14.144 -75)">
  <path d="m15.154 88.229h49.35v-13.229h-49.35z" style="fill-rule:evenodd;stroke-width:.054086"/>
  <g transform="matrix(1.0351 0 0 .96608 .092612 0)" style="fill:#fff;stroke-width:.14665" aria-label="WE SUPPORT">
   <path d="m24.003 82.427-1.3433 4.1061h-1.0207l-0.90334-2.7804-0.93267 2.7804h-1.0148l-1.3491-4.1061h0.98546l0.9268 2.886 0.96786-2.886h0.87988l0.93854 2.9095 0.95613-2.9095z" style="fill:#fff;stroke-width:.14665"/>
   <path d="m27.702 85.77v0.76256h-3.1793v-4.1061h3.103v0.76256h-2.1586v0.89161h1.9064v0.7391h-1.9064v0.95027z" style="fill:#fff;stroke-width:.14665"/>
   <path d="m31.474 86.603q-0.48686 0-0.9444-0.12905-0.45167-0.13491-0.72736-0.34608l0.32262-0.71563q0.26396 0.19357 0.62764 0.31089t0.72736 0.11732q0.40474 0 0.59832-0.11732 0.19357-0.12318 0.19357-0.32262 0-0.14665-0.11732-0.2405-0.11145-0.09972-0.29329-0.15838-0.17598-0.05866-0.481-0.12905-0.46927-0.11145-0.76842-0.2229t-0.51619-0.35782q-0.21117-0.24636-0.21117-0.65697 0-0.35782 0.19357-0.64524 0.19357-0.29329 0.58072-0.4634 0.39301-0.17011 0.95613-0.17011 0.39301 0 0.76842 0.09385 0.37541 0.09385 0.65697 0.26983l-0.29329 0.7215q-0.56899-0.32262-1.138-0.32262-0.39888 0-0.59245 0.12905-0.18771 0.12905-0.18771 0.34022t0.21704 0.31676q0.2229 0.09972 0.67457 0.19944 0.46927 0.11145 0.76842 0.2229 0.29916 0.11145 0.51033 0.35195 0.21704 0.2405 0.21704 0.65111 0 0.35195-0.19944 0.64524-0.19357 0.28743-0.58658 0.45754-0.39301 0.17011-0.95613 0.17011z" style="fill:#fff;stroke-width:.14665"/>
   <path d="m35.695 86.603q-0.87988 0-1.3726-0.48686-0.48686-0.48686-0.48686-1.3902v-2.2994h0.95027v2.2642q0 1.1028 0.91507 1.1028 0.4458 0 0.68044-0.26396 0.23463-0.26983 0.23463-0.83882v-2.2642h0.93853v2.2994q0 0.90334-0.49273 1.3902-0.48686 0.48686-1.3667 0.48686z" style="fill:#fff;stroke-width:.14665"/>
   <path d="m40.266 82.427q0.54552 0 0.9444 0.18184 0.40474 0.18184 0.62178 0.51619t0.21704 0.79189q0 0.45167-0.21704 0.79189-0.21704 0.33435-0.62178 0.51619-0.39888 0.17598-0.9444 0.17598h-0.82708v1.1321h-0.95027v-4.1061zm-0.05279 2.1997q0.42821 0 0.65111-0.18184 0.2229-0.18771 0.2229-0.52793 0-0.34608-0.2229-0.52793-0.2229-0.18771-0.65111-0.18771h-0.77429v1.4254z" style="fill:#fff;stroke-width:.14665"/>
   <path d="m44.505 82.427q0.54552 0 0.9444 0.18184 0.40474 0.18184 0.62178 0.51619t0.21704 0.79189q0 0.45167-0.21704 0.79189-0.21704 0.33435-0.62178 0.51619-0.39888 0.17598-0.9444 0.17598h-0.82708v1.1321h-0.95027v-4.1061zm-0.05279 2.1997q0.42821 0 0.65111-0.18184 0.2229-0.18771 0.2229-0.52793 0-0.34608-0.2229-0.52793-0.2229-0.18771-0.65111-0.18771h-0.77429v1.4254z" style="fill:#fff;stroke-width:.14665"/>
   <path d="m49.012 86.603q-0.63938 0-1.1556-0.2757-0.51033-0.27569-0.80362-0.75669-0.28743-0.48686-0.28743-1.091 0-0.60418 0.28743-1.0852 0.29329-0.48686 0.80362-0.76256 0.51619-0.27569 1.1556-0.27569 0.63938 0 1.1497 0.27569 0.51033 0.2757 0.80362 0.76256 0.29329 0.481 0.29329 1.0852 0 0.60418-0.29329 1.091-0.29329 0.481-0.80362 0.75669-0.51033 0.2757-1.1497 0.2757zm0-0.80949q0.36368 0 0.65698-0.16424 0.29329-0.17011 0.45754-0.46927 0.17011-0.29916 0.17011-0.68044 0-0.38128-0.17011-0.68044-0.16424-0.29916-0.45754-0.4634-0.29329-0.17011-0.65698-0.17011-0.36368 0-0.65697 0.17011-0.29329 0.16424-0.4634 0.4634-0.16424 0.29916-0.16424 0.68044 0 0.38128 0.16424 0.68044 0.17011 0.29916 0.4634 0.46927 0.29329 0.16424 0.65697 0.16424z" style="fill:#fff;stroke-width:.14665"/>
   <path d="m54.589 86.533-0.79189-1.1438h-0.87401v1.1438h-0.95027v-4.1061h1.7774q0.54552 0 0.9444 0.18184 0.40474 0.18184 0.62178 0.51619t0.21704 0.79189q0 0.45754-0.2229 0.79189-0.21704 0.32849-0.62178 0.50446l0.92094 1.3198zm-0.0176-2.6162q0-0.34608-0.2229-0.52793-0.2229-0.18771-0.65111-0.18771h-0.77429v1.4313h0.77429q0.42821 0 0.65111-0.18771 0.2229-0.18771 0.2229-0.52793z" style="fill:#fff;stroke-width:.14665"/>
   <path d="m57.074 83.201h-1.3139v-0.77429h3.5782v0.77429h-1.3139v3.3318h-0.95027z" style="fill:#fff;stroke-width:.14665"/>
  </g>
  <path d="m64.504 88.229h22.408v-13.229h-22.408z" style="fill-rule:evenodd;fill:#c83737;stroke-width:.036446"/>
  <g transform="matrix(1.0351 0 0 .96608 -.9513 0)" style="fill:#fff;stroke-width:.14665" aria-label="BLM">
   <path d="m70.745 84.398q0.35195 0.11145 0.55139 0.37542 0.19944 0.2581 0.19944 0.63938 0 0.53966-0.42234 0.83295-0.41648 0.28743-1.2201 0.28743h-2.1234v-4.1061h2.0061q0.75083 0 1.1497 0.28743 0.40474 0.28743 0.40474 0.78016 0 0.29916-0.14665 0.53379-0.14078 0.23463-0.39888 0.36955zm-2.0706-1.2553v0.96787h0.9444q0.35195 0 0.53379-0.12318 0.18184-0.12318 0.18184-0.36368t-0.18184-0.35782q-0.18184-0.12318-0.53379-0.12318zm1.1086 2.6748q0.37541 0 0.56312-0.12318 0.19357-0.12318 0.19357-0.38128 0-0.51033-0.7567-0.51033h-1.1086v1.0148z" style="fill:#fff;stroke-width:.14665"/>
   <path d="m72.221 82.427h0.95027v3.3318h2.0589v0.77429h-3.0092z" style="fill:#fff;stroke-width:.14665"/>
   <path d="m79.497 86.533-0.0059-2.4637-1.2084 2.0296h-0.42821l-1.2025-1.9768v2.4109h-0.89161v-4.1061h0.78602l1.5369 2.5516 1.5134-2.5516h0.78016l0.01173 4.1061z" style="fill:#fff;stroke-width:.14665"/>
  </g>
 </g>
</svg>
