<svg width="200" height="50" version="1.1" viewBox="0 0 52.917 13.229" xmlns="http://www.w3.org/2000/svg">
 <g transform="matrix(.93332 0 0 1 -14.144 -75.001)">
  <path transform="scale(1,-1)" d="m15.154-88.229h56.697v13.229h-56.697z" style="fill-rule:evenodd;stroke-width:.057973"/>
  <g transform="scale(1.0351 .96608)" style="fill:#fff;stroke-width:.27387" aria-label="WE">
   <path d="m22.948 83.149h0.65793l0.46002 1.9346 0.45645-1.9346h0.6615l0.45645 1.9346 0.46002-1.9346h0.65258l-0.62762 2.662h-0.79166l-0.4832-2.0237-0.47785 2.0237h-0.79166z" style="fill:#fff;stroke-width:.27387"/>
   <path d="m27.205 83.149h1.8525v0.51886h-1.1661v0.49568h1.0966v0.51886h-1.0966v0.60979h1.2053v0.51886h-1.8918z" style="fill:#fff;stroke-width:.27387"/>
  </g>
  <path d="m45.635 76.764-2.6936 1.8674-2.6936-1.8674-2.6936 2.3342v3.2679l5.3871 4.6684 5.3871-4.6684v-3.2679z" style="fill:#fff;stroke-width:.4578"/>
  <g transform="scale(1.0351 .96608)" style="fill:#fff;stroke-width:.27387" aria-label="BLM">
   <path d="m55.419 84.18q0.16225 0 0.24606-0.07132 0.0838-0.07132 0.0838-0.2104 0-0.13729-0.0838-0.20861-0.0838-0.0731-0.24606-0.0731h-0.37978v0.56343zm0.02318 1.1643q0.20683 0 0.31024-0.08737 0.1052-0.08737 0.1052-0.26389 0-0.17295-0.10341-0.25854-0.10341-0.08737-0.31203-0.08737h-0.40296v0.69716zm0.63832-0.95748q0.22109 0.06419 0.34234 0.23714 0.12124 0.17295 0.12124 0.42436 0 0.38513-0.26032 0.57413t-0.79166 0.189h-1.1393v-2.662h1.0306q0.55452 0 0.80235 0.1676 0.24962 0.1676 0.24962 0.53668 0 0.19435-0.09093 0.33164-0.09093 0.13551-0.26389 0.20148z" style="fill:#fff;stroke-width:.27387"/>
   <path d="m57.134 83.149h0.68646v2.1432h1.2053v0.51886h-1.8918z" style="fill:#fff;stroke-width:.27387"/>
   <path d="m59.459 83.149h0.87367l0.60622 1.4246 0.60979-1.4246h0.87189v2.662h-0.64902v-1.947l-0.61336 1.4353h-0.43505l-0.61335-1.4353v1.947h-0.6508z" style="fill:#fff;stroke-width:.27387"/>
  </g>
 </g>
</svg>
