<?xml version="1.0" encoding="UTF-8" standalone="no"?>
<svg
   xmlns:dc="http://purl.org/dc/elements/1.1/"
   xmlns:cc="http://creativecommons.org/ns#"
   xmlns:rdf="http://www.w3.org/1999/02/22-rdf-syntax-ns#"
   xmlns:svg="http://www.w3.org/2000/svg"
   xmlns="http://www.w3.org/2000/svg"
   xmlns:sodipodi="http://sodipodi.sourceforge.net/DTD/sodipodi-0.dtd"
   xmlns:inkscape="http://www.inkscape.org/namespaces/inkscape"
   inkscape:version="1.0 (1.0+r73+1)"
   sodipodi:docname="we-love-blm.svg"
   id="svg615"
   viewBox="0 0 52.917 13.229"
   version="1.1"
   height="50"
   width="200">
  <metadata
     id="metadata621">
    <rdf:RDF>
      <cc:Work
         rdf:about="">
        <dc:format>image/svg+xml</dc:format>
        <dc:type
           rdf:resource="http://purl.org/dc/dcmitype/StillImage" />
        <dc:title></dc:title>
      </cc:Work>
    </rdf:RDF>
  </metadata>
  <defs
     id="defs619" />
  <sodipodi:namedview
     inkscape:current-layer="text605"
     inkscape:window-maximized="1"
     inkscape:window-y="0"
     inkscape:window-x="1920"
     inkscape:cy="33.751909"
     inkscape:cx="100.57057"
     inkscape:zoom="3.425"
     showgrid="false"
     id="namedview617"
     inkscape:window-height="1043"
     inkscape:window-width="1920"
     inkscape:pageshadow="2"
     inkscape:pageopacity="0"
     guidetolerance="10"
     gridtolerance="10"
     objecttolerance="10"
     borderopacity="1"
     bordercolor="#666666"
     pagecolor="#ffffff" />
  <g
     id="g613"
     transform="matrix(.93332 0 0 1 -14.144 -75.001)">
    <path
       d="m 15.154,-88.228996 h 56.696999 v 13.229 H 15.154 Z"
       transform="scale(1,-1)"
       style="fill:#000000;fill-rule:evenodd;stroke-width:0.057973"
       id="rect601" />
    <g
       style="font-size:3.6516px;line-height:1.25;font-family:sans-serif;fill:#ffffff;stroke-width:0.27387"
       id="text605"
       transform="scale(1.0351 .96608)"
       aria-label="WE">
      <path
         id="path640"
         style="font-weight:bold;font-size:3.6516px;font-family:sans-serif;fill:#ffffff;stroke-width:0.27387"
         d="m 22.948487,83.148966 h 0.65793 l 0.460016,1.934564 0.45645,-1.934564 h 0.661496 l 0.45645,1.934564 0.460016,-1.934564 h 0.652581 l -0.627619,2.662031 h -0.791656 l -0.483195,-2.023714 -0.477846,2.023714 h -0.791655 z" />
      <path
         id="path642"
         style="font-weight:bold;font-size:3.6516px;font-family:sans-serif;fill:#ffffff;stroke-width:0.27387"
         d="m 27.204527,83.148966 h 1.852545 v 0.518856 h -1.166087 v 0.495676 h 1.09655 v 0.518855 h -1.09655 v 0.609789 h 1.205313 v 0.518855 h -1.891771 z" />
    </g>
    <path
       id="path607"
       style="fill:#fff;stroke-width:.4578"
       d="m45.635 76.764-2.6936 1.8674-2.6936-1.8674-2.6936 2.3342v3.2679l5.3871 4.6684 5.3871-4.6684v-3.2679z" />
    <g
       style="font-size:3.6516px;line-height:1.25;font-family:sans-serif;fill:#ffffff;stroke-width:0.27387"
       id="text611"
       transform="scale(1.0351 .96608)"
       aria-label="BLM">
      <path
         id="path645"
         style="font-weight:bold;font-size:3.6516px;font-family:sans-serif;fill:#ffffff;stroke-width:0.27387"
         d="m 55.41879,84.179545 q 0.162253,0 0.246055,-0.07132 0.0838,-0.07132 0.0838,-0.210395 0,-0.137292 -0.0838,-0.208612 -0.0838,-0.0731 -0.246055,-0.0731 h -0.379781 v 0.563431 z m 0.02318,1.164304 q 0.206829,0 0.310243,-0.08737 0.105197,-0.08737 0.105197,-0.263886 0,-0.172951 -0.103414,-0.258536 -0.103414,-0.08737 -0.312026,-0.08737 h -0.40296 v 0.697156 z m 0.638316,-0.957475 q 0.221093,0.06419 0.342338,0.23714 0.121244,0.172952 0.121244,0.424356 0,0.385129 -0.260319,0.574128 -0.260319,0.188999 -0.791655,0.188999 h -1.139342 v -2.662031 h 1.030578 q 0.554516,0 0.802354,0.167603 0.249621,0.167603 0.249621,0.536685 0,0.194348 -0.09093,0.33164 -0.09093,0.135509 -0.263886,0.20148 z" />
      <path
         id="path647"
         style="font-weight:bold;font-size:3.6516px;font-family:sans-serif;fill:#ffffff;stroke-width:0.27387"
         d="m 57.134043,83.148966 h 0.686458 v 2.143176 h 1.205313 v 0.518855 h -1.891771 z" />
      <path
         id="path649"
         style="font-weight:bold;font-size:3.6516px;font-family:sans-serif;fill:#ffffff;stroke-width:0.27387"
         d="m 59.459085,83.148966 h 0.873674 l 0.606222,1.424624 0.609789,-1.424624 h 0.871891 v 2.662031 h -0.649015 v -1.947044 l -0.613355,1.435321 h -0.435054 l -0.613354,-1.435321 v 1.947044 h -0.650798 z" />
    </g>
  </g>
</svg>
